#N canvas 922 104 904 457 10;
#X obj 444 113 sendOSC;
#X msg 444 66 connect localhost 9999;
#X msg 297 42 send /prout/crotte 1;
#X msg 444 43 disconnect;
#X obj 42 61 dumpOSC 9999;
#X obj 444 89 r messages;
#X obj 297 104 s messages;
#X msg 297 63 send /test/crotte 23;
#X obj 42 138 print prout_route;
#X obj 177 140 print default_route;
#X obj 109 114 s reply;
#X obj 107 184 r reply;
#X obj 42 90 OSCroute /prout /client;
#X obj 107 207 OSCroute /test;
#X floatatom 107 258 5 0 0 0 - - -;
#X floatatom 144 259 5 0 0 0 - - -;
#X obj 107 229 unpack 0 0;
#X obj 182 257 select 5;
#X obj 182 325 sendOSC;
#X msg 182 279 connect localhost 9998 \, send /client/prout \, send
/client/quit \, disconnect;
#X connect 1 0 0 0;
#X connect 2 0 6 0;
#X connect 3 0 0 0;
#X connect 4 0 12 0;
#X connect 5 0 0 0;
#X connect 7 0 6 0;
#X connect 11 0 13 0;
#X connect 12 0 8 0;
#X connect 12 1 10 0;
#X connect 12 2 9 0;
#X connect 13 0 16 0;
#X connect 16 0 14 0;
#X connect 16 1 15 0;
#X connect 16 1 17 0;
#X connect 17 0 19 0;
#X connect 19 0 18 0;
#X coords 0 0 1 1 85 60 0;
