#N canvas 0 25 527 337 10;
#X obj 179 3 notein;
#X obj 104 54 mtof~;
#X obj 158 153 *~;
#X obj 121 92 osc~;
#X obj 200 83 / 64;
#X obj 147 210 dac~;
#X floatatom 260 78 5 0 0 0 - - -;
#X floatatom 260 97 5 0 0 0 - - -;
#X msg 259 115 0;
#X connect 0 0 1 0;
#X connect 0 0 7 0;
#X connect 0 1 4 0;
#X connect 0 1 6 0;
#X connect 1 0 3 0;
#X connect 2 0 5 0;
#X connect 2 0 5 1;
#X connect 3 0 2 0;
#X connect 4 0 2 1;
#X connect 8 0 2 1;
