#N canvas 673 48 1049 754 10;
#X obj 444 90 sendOSC;
#X msg 527 44 connect localhost 9999;
#X msg 297 42 send /prout/crotte 1;
#X msg 444 43 disconnect;
#X obj 42 61 dumpOSC 9999;
#X obj 444 66 r messages;
#X obj 297 87 s messages;
#X msg 297 63 send /test/crotte 23;
#X obj 42 138 print prout_route;
#X obj 237 140 print default_route;
#X obj 107 115 s reply;
#X obj 107 184 r reply;
#X obj 107 207 OSCroute /test;
#X floatatom 107 258 5 0 0 0 - - -;
#X floatatom 144 259 5 0 0 0 - - -;
#X obj 107 229 unpack 0 0;
#X obj 182 257 select 5;
#X obj 182 325 sendOSC;
#X msg 182 279 connect localhost 9998 \, send /client/prout \, send
/client/quit \, disconnect;
#X msg 527 67 connect localhost 9998;
#X msg 647 352 send /autonome/led 1 2 1;
#X msg 647 419 send /autonome/led 1 2 0;
#X obj 647 445 s messages;
#X msg 647 374 bang;
#X obj 647 327 metro 2000;
#X obj 647 396 delay 1000;
#X msg 658 281 bang;
#X msg 658 305 stop;
#X obj 42 90 OSCroute /prout /client /autonome;
#X obj 172 116 s autonome;
#X obj 863 281 r autonome;
#X obj 863 306 OSCroute /press;
#X msg 863 330 send /autonome/led \$1 \$2 \$3;
#X text 650 259 make autonome led blink;
#X text 862 263 highlight pressed keys;
#X obj 863 355 s messages;
#X connect 1 0 0 0;
#X connect 2 0 6 0;
#X connect 3 0 0 0;
#X connect 4 0 28 0;
#X connect 5 0 0 0;
#X connect 7 0 6 0;
#X connect 11 0 12 0;
#X connect 12 0 15 0;
#X connect 15 0 13 0;
#X connect 15 1 14 0;
#X connect 15 1 16 0;
#X connect 16 0 18 0;
#X connect 18 0 17 0;
#X connect 19 0 0 0;
#X connect 20 0 22 0;
#X connect 20 0 23 0;
#X connect 21 0 22 0;
#X connect 23 0 25 0;
#X connect 24 0 20 0;
#X connect 25 0 21 0;
#X connect 26 0 24 0;
#X connect 27 0 24 0;
#X connect 28 0 8 0;
#X connect 28 1 10 0;
#X connect 28 2 29 0;
#X connect 28 3 9 0;
#X connect 30 0 31 0;
#X connect 31 0 32 0;
#X connect 32 0 35 0;
#X coords 0 0 1 1 85 60 0;
