#N canvas 0 25 1897 1079 24;
#X obj 205 165 sendOSC;
#X msg 205 76 connect localhost 9998;
#X obj 75 71 dumpOSC 9999;
#X obj 20 113 OSCroute /autonome;
#X obj 211 38 loadbang;
#X obj 215 102 r autonome_out;
#X obj 55 188 print bb;
#X obj 474 166 s autonome_out;
#X msg 473 46 send /autonome/led 2 5 1;
#X msg 482 77 send /autonome/clear;
#X msg 496 98 send /autonome/led_col 1 158;
#X msg 509 135 send /autonome/led_row 3 11;
#X obj 356 204 tgl 15 0 empty empty empty 17 7 0 10 -262144 -1 -1 1
1;
#X msg 323 273 0;
#X obj 359 303 + 1;
#X floatatom 274 301 5 0 0 0 - - -;
#X msg 359 275 1;
#X obj 355 242 metro 150;
#X msg 458 362 print bb;
#X obj 363 340 select 8;
#X obj 156 480 s autonome_out;
#X obj 90 304 mod 8;
#X obj 89 271 - 1;
#X msg 166 401 send /autonome/led_col \$1 255;
#X msg 8 327 send /autonome/led_col \$1 0;
#X obj 23 154 s autonome_in;
#X obj 838 513 r autonome_in;
#X obj 846 581 OSCroute /press;
#X msg 837 648 send /autonome/led \$1 \$2 1;
#X obj 808 748 s autonome_out;
#X obj 494 970 dac~;
#X obj 513 834 phasor~;
#X obj 541 787 mtof;
#X msg 660 643 \$1;
#X msg 619 859 1;
#X obj 513 901 *~;
#X obj 585 682 * 4;
#X obj 562 732 + 32;
#X obj 708 873 bng 15 250 50 0 empty empty empty 17 7 0 10 -262144
-1 -1;
#X obj 648 832 bng 15 250 50 0 empty empty empty 17 7 0 10 -262144
-1 -1;
#X msg 688 916 0;
#X msg 609 948 \$1 10;
#X obj 590 1003 line~;
#X obj 684 817 del 500;
#X obj 693 759 b;
#X connect 1 0 0 0;
#X connect 2 0 3 0;
#X connect 3 0 25 0;
#X connect 3 1 6 0;
#X connect 4 0 1 0;
#X connect 5 0 0 0;
#X connect 8 0 7 0;
#X connect 9 0 7 0;
#X connect 10 0 7 0;
#X connect 11 0 7 0;
#X connect 12 0 17 0;
#X connect 13 0 15 0;
#X connect 14 0 19 0;
#X connect 15 0 14 1;
#X connect 15 0 23 0;
#X connect 15 0 22 0;
#X connect 16 0 14 0;
#X connect 17 0 16 0;
#X connect 19 0 13 0;
#X connect 19 1 15 0;
#X connect 21 0 24 0;
#X connect 22 0 21 0;
#X connect 23 0 20 0;
#X connect 24 0 20 0;
#X connect 26 0 27 0;
#X connect 27 0 28 0;
#X connect 27 0 33 0;
#X connect 28 0 29 0;
#X connect 31 0 35 0;
#X connect 32 0 31 0;
#X connect 33 0 34 0;
#X connect 33 0 36 0;
#X connect 33 0 39 0;
#X connect 33 0 44 0;
#X connect 34 0 41 0;
#X connect 35 0 30 0;
#X connect 36 0 37 0;
#X connect 37 0 32 0;
#X connect 40 0 41 0;
#X connect 41 0 42 0;
#X connect 42 0 35 1;
#X connect 43 0 38 0;
#X connect 43 0 40 0;
#X connect 44 0 43 0;
