#N canvas 692 303 789 436 10;
#X obj 205 165 sendOSC;
#X msg 205 76 connect localhost 9998;
#X obj 75 71 dumpOSC 9999;
#X obj 46 99 OSCroute /autonome;
#X obj 211 38 loadbang;
#X obj 215 102 r autonome_out;
#X obj 108 154 print bb;
#X obj 474 166 s autonome_out;
#X msg 473 46 send /autonome/led 2 5 1;
#X msg 482 77 send /autonome/clear;
#X msg 496 98 send /autonome/led_col 1 158;
#X msg 509 135 send /autonome/led_row 3 11;
#X obj 356 204 tgl 15 0 empty empty empty 17 7 0 10 -262144 -1 -1 1
1;
#X msg 323 273 0;
#X obj 359 303 + 1;
#X floatatom 274 301 5 0 0 0 - - -;
#X msg 359 275 1;
#X obj 355 242 metro 150;
#X msg 458 362 print bb;
#X obj 363 340 select 8;
#X msg 166 343 send /autonome/led_row \$1 255;
#X obj 164 372 s autonome_out;
#X obj 90 304 mod 8;
#X obj 89 271 - 1;
#X msg 8 329 send /autonome/led_row \$1 0;
#X connect 1 0 0 0;
#X connect 2 0 3 0;
#X connect 3 1 6 0;
#X connect 4 0 1 0;
#X connect 5 0 0 0;
#X connect 8 0 7 0;
#X connect 9 0 7 0;
#X connect 10 0 7 0;
#X connect 11 0 7 0;
#X connect 12 0 17 0;
#X connect 13 0 15 0;
#X connect 14 0 19 0;
#X connect 15 0 14 1;
#X connect 15 0 20 0;
#X connect 15 0 23 0;
#X connect 16 0 14 0;
#X connect 17 0 16 0;
#X connect 19 0 13 0;
#X connect 19 1 15 0;
#X connect 20 0 21 0;
#X connect 22 0 24 0;
#X connect 23 0 22 0;
#X connect 24 0 21 0;
