#N canvas 710 387 898 653 10;
#X obj 205 141 sendOSC;
#X obj 205 53 loadbang;
#X obj 205 119 r autonome_out;
#X obj 388 146 s autonome_out;
#X obj 21 210 tgl 15 0 empty empty empty 17 7 0 10 -262144 -1 -1 1
1;
#X msg 21 326 0;
#X obj 21 279 + 1;
#X floatatom 36 364 5 0 0 0 - - -;
#X msg 21 255 1;
#X obj 21 302 select 8;
#X obj 36 481 s autonome_out;
#X obj 36 407 mod 8;
#X obj 36 385 - 1;
#X obj 20 160 s autonome_in;
#X obj 299 174 r autonome_in;
#X obj 299 198 OSCroute /press;
#X obj 385 296 s autonome_out;
#X obj 283 464 dac~;
#X obj 244 409 phasor~;
#X obj 244 386 mtof;
#X msg 259 258 \$1;
#X msg 299 358 1;
#X obj 284 440 *~;
#X msg 343 358 0;
#X msg 299 388 \$1 10;
#X obj 299 410 line~;
#X obj 20 89 dumpOSC 8000;
#X msg 205 98 disconnect;
#X msg 205 76 connect localhost 8080;
#X obj 20 113 OSCroute /mlr;
#X obj 95 138 print default;
#X msg 388 78 send /mlr/clear;
#X msg 388 100 send /mlr/led_col 1 158;
#X obj 343 314 bang;
#X obj 259 278 * 8;
#X msg 229 258 \$2;
#X obj 244 311 +;
#X floatatom 244 359 5 0 0 0 - - -;
#X obj 244 338 + 32;
#X msg 36 429 send /mlr/led_col \$1 0;
#X msg 36 453 send /mlr/led_col \$1 255;
#X obj 299 283 select 1;
#X msg 299 257 \$3;
#X obj 21 232 metro 300;
#X obj 612 100 loadbang;
#X obj 21 187 r scan;
#X msg 612 123 \; pd dsp 1 \; scan bang \;;
#X msg 555 278 send /mlr/layer 1;
#X msg 555 324 send /mlr/layer 0;
#X obj 555 442 s autonome_out;
#X obj 555 233 tgl 15 0 empty empty empty 17 7 0 10 -262144 -1 -1 0
1;
#X msg 600 350 send /mlr/layer 1;
#X msg 600 397 send /mlr/layer 0;
#X msg 600 373 send /mlr/clear;
#X obj 555 254 select 1;
#X msg 555 301 send /mlr/frame 127 9 9 15 0 125 0 0;
#X obj 343 335 del 1000;
#X msg 385 232 send /mlr/layer 2;
#X msg 385 274 send /mlr/layer 0;
#X msg 387 366 send /mlr/layer 2;
#X msg 387 410 send /mlr/layer 0;
#X msg 387 388 send /mlr/clear;
#X obj 387 432 s autonome_out;
#X msg 385 253 send /mlr/led \$1 \$2 1;
#X msg 388 122 send /mlr/led_row 5 11;
#X msg 388 57 send /mlr/led 2 7 1;
#X connect 1 0 28 0;
#X connect 2 0 0 0;
#X connect 4 0 43 0;
#X connect 5 0 7 0;
#X connect 6 0 9 0;
#X connect 7 0 6 1;
#X connect 7 0 40 0;
#X connect 7 0 12 0;
#X connect 8 0 6 0;
#X connect 9 0 5 0;
#X connect 9 1 7 0;
#X connect 11 0 39 0;
#X connect 12 0 11 0;
#X connect 14 0 15 0;
#X connect 15 0 20 0;
#X connect 15 0 35 0;
#X connect 15 0 42 0;
#X connect 15 0 57 0;
#X connect 15 0 63 0;
#X connect 15 0 58 0;
#X connect 18 0 22 0;
#X connect 19 0 18 0;
#X connect 20 0 34 0;
#X connect 21 0 24 0;
#X connect 22 0 17 0;
#X connect 23 0 24 0;
#X connect 24 0 25 0;
#X connect 25 0 22 1;
#X connect 26 0 29 0;
#X connect 27 0 0 0;
#X connect 28 0 0 0;
#X connect 29 0 13 0;
#X connect 29 1 30 0;
#X connect 31 0 3 0;
#X connect 32 0 3 0;
#X connect 33 0 56 0;
#X connect 34 0 36 1;
#X connect 35 0 36 0;
#X connect 36 0 38 0;
#X connect 37 0 19 0;
#X connect 38 0 37 0;
#X connect 39 0 10 0;
#X connect 40 0 10 0;
#X connect 41 0 21 0;
#X connect 41 0 33 0;
#X connect 41 1 23 0;
#X connect 42 0 41 0;
#X connect 43 0 8 0;
#X connect 44 0 46 0;
#X connect 45 0 4 0;
#X connect 47 0 49 0;
#X connect 48 0 49 0;
#X connect 50 0 54 0;
#X connect 51 0 49 0;
#X connect 52 0 49 0;
#X connect 53 0 49 0;
#X connect 54 0 47 0;
#X connect 54 0 55 0;
#X connect 54 0 48 0;
#X connect 54 1 51 0;
#X connect 54 1 53 0;
#X connect 54 1 52 0;
#X connect 55 0 49 0;
#X connect 56 0 23 0;
#X connect 56 0 59 0;
#X connect 56 0 61 0;
#X connect 56 0 60 0;
#X connect 57 0 16 0;
#X connect 58 0 16 0;
#X connect 59 0 62 0;
#X connect 60 0 62 0;
#X connect 61 0 62 0;
#X connect 63 0 16 0;
#X connect 64 0 3 0;
#X connect 65 0 3 0;
