#N canvas 0 25 1897 1079 10;
#X obj 205 141 sendOSC;
#X obj 205 53 loadbang;
#X obj 205 119 r autonome_out;
#X obj 388 146 s autonome_out;
#X obj 23 189 tgl 15 0 empty empty empty 17 7 0 10 -262144 -1 -1 1
1;
#X msg 23 305 0;
#X obj 23 258 + 1;
#X floatatom 38 343 5 0 0 0 - - -;
#X msg 23 234 1;
#X obj 23 281 select 8;
#X obj 38 460 s autonome_out;
#X obj 38 386 mod 8;
#X obj 38 364 - 1;
#X obj 20 160 s autonome_in;
#X obj 299 174 r autonome_in;
#X obj 299 198 OSCroute /press;
#X obj 329 257 s autonome_out;
#X obj 283 464 dac~;
#X obj 244 409 phasor~;
#X obj 244 386 mtof;
#X msg 259 258 \$1;
#X msg 299 358 1;
#X obj 284 440 *~;
#X msg 343 358 0;
#X msg 299 388 \$1 10;
#X obj 299 410 line~;
#X obj 20 89 dumpOSC 8000;
#X msg 205 98 disconnect;
#X msg 205 76 connect localhost 8080;
#X obj 20 113 OSCroute /mlr;
#X obj 95 138 print default;
#X msg 388 57 send /mlr/led 2 5 1;
#X msg 388 78 send /mlr/clear;
#X msg 388 100 send /mlr/led_col 1 158;
#X msg 388 122 send /mlr/led_row 3 11;
#X msg 329 234 send /mlr/led \$1 \$2 1;
#X obj 343 314 bang;
#X obj 259 278 * 8;
#X msg 229 258 \$2;
#X obj 244 311 +;
#X floatatom 244 359 5 0 0 0 - - -;
#X obj 244 338 + 32;
#X msg 38 408 send /mlr/led_col \$1 0;
#X msg 38 435 send /mlr/led_col \$1 255;
#X obj 299 283 select 1;
#X msg 299 257 \$3;
#X obj 343 335 del 750;
#X obj 23 211 metro 300;
#X connect 1 0 28 0;
#X connect 2 0 0 0;
#X connect 4 0 47 0;
#X connect 5 0 7 0;
#X connect 6 0 9 0;
#X connect 7 0 6 1;
#X connect 7 0 43 0;
#X connect 7 0 12 0;
#X connect 8 0 6 0;
#X connect 9 0 5 0;
#X connect 9 1 7 0;
#X connect 11 0 42 0;
#X connect 12 0 11 0;
#X connect 14 0 15 0;
#X connect 15 0 35 0;
#X connect 15 0 20 0;
#X connect 15 0 38 0;
#X connect 15 0 45 0;
#X connect 18 0 22 0;
#X connect 19 0 18 0;
#X connect 20 0 37 0;
#X connect 21 0 24 0;
#X connect 22 0 17 0;
#X connect 23 0 24 0;
#X connect 24 0 25 0;
#X connect 25 0 22 1;
#X connect 26 0 29 0;
#X connect 27 0 0 0;
#X connect 28 0 0 0;
#X connect 29 0 13 0;
#X connect 29 1 30 0;
#X connect 31 0 3 0;
#X connect 32 0 3 0;
#X connect 33 0 3 0;
#X connect 34 0 3 0;
#X connect 35 0 16 0;
#X connect 36 0 46 0;
#X connect 37 0 39 1;
#X connect 38 0 39 0;
#X connect 39 0 41 0;
#X connect 40 0 19 0;
#X connect 41 0 40 0;
#X connect 42 0 10 0;
#X connect 43 0 10 0;
#X connect 44 0 21 0;
#X connect 44 0 36 0;
#X connect 44 1 23 0;
#X connect 45 0 44 0;
#X connect 46 0 23 0;
#X connect 47 0 8 0;
